PathFileType	4	(X/Y/Z)	 s03c0103.trc
DataRate	CameraRate	NumFrames	NumMarkers	Units	OrigDataRate	OrigDataStartFrame	OrigNumFrames
200	200	4	50	mm	200	501	2000
Frame#	Time	racr			lacr			c7			jug			rlel			rdr			llel			ldr			s2			lic			ric			lasi			rasi			rpsi			lpsi			rgt			lgt			rth1			rth2			rth3			rth4			rlfc			rmfc			rsh1			rsh2			rsh3			rsh4			rlmal			rcal			rtoe			rmt5			rmt1			lth1			lth2			lth4			lth3			llfc			lmfc			lsh1			lsh2			lsh3			lsh4			llmal			lcal			ltoe			lmt1			lmt5			SBIKE			LBIKE			RBIKE			
		X1	Y1	Z1	X2	Y2	Z2	X3	Y3	Z3	X4	Y4	Z4	X5	Y5	Z5	X6	Y6	Z6	X7	Y7	Z7	X8	Y8	Z8	X9	Y9	Z9	X10	Y10	Z10	X11	Y11	Z11	X12	Y12	Z12	X13	Y13	Z13	X14	Y14	Z14	X15	Y15	Z15	X16	Y16	Z16	X17	Y17	Z17	X18	Y18	Z18	X19	Y19	Z19	X20	Y20	Z20	X21	Y21	Z21	X22	Y22	Z22	X23	Y23	Z23	X24	Y24	Z24	X25	Y25	Z25	X26	Y26	Z26	X27	Y27	Z27	X28	Y28	Z28	X29	Y29	Z29	X30	Y30	Z30	X31	Y31	Z31	X32	Y32	Z32	X33	Y33	Z33	X34	Y34	Z34	X35	Y35	Z35	X36	Y36	Z36	X37	Y37	Z37	X38	Y38	Z38	X39	Y39	Z39	X40	Y40	Z40	X41	Y41	Z41	X42	Y42	Z42	X43	Y43	Z43	X44	Y44	Z44	X45	Y45	Z45	X46	Y46	Z46	X47	Y47	Z47	X48	Y48	Z48	X49	Y49	Z49	X50	Y50	Z50	
501	2.5050	481.147967	1406.096801	-87.254741	433.494109	1429.361450	-386.078249	380.681886	1500.743296	-221.595926	406.819448	1330.361221	-235.714585	532.543050	1141.033506	8.260847	746.086009	940.067715	-31.785099	526.516476	1175.373176	-442.390695	742.665181	954.682912	-412.468419	-123.043940	1195.731813	-203.157793	36.761519	1257.081509	-391.712701	45.388954	1223.623447	-19.835586	67.306219	1183.337917	-348.691647	76.590758	1160.011405	-64.236164	-100.792650	1245.018972	-151.399079	-96.876000	1251.739690	-234.270912	-9.162595	1103.989579	-15.506874	9.423639	1155.499501	-410.376681	93.378705	980.060589	0.391424	173.279745	941.375629	5.574464	224.402582	872.150933	0.165975	197.327630	968.234943	-2.047489	299.309137	768.356475	-25.689164	309.463366	758.737073	-148.249592	212.108095	624.029341	-13.503541	185.395689	541.871722	-37.429624	120.294039	483.469046	-46.094729	214.837530	531.518785	-59.390493	41.847552	382.573884	-80.044654	-26.938453	374.827467	-123.251723	227.122629	193.519220	-104.722653	115.706792	248.737108	-44.599560	153.948579	245.560153	-155.479143	136.611966	1063.865424	-435.465837	219.746138	1040.847372	-438.923611	238.352006	1070.756623	-428.750559	281.760156	975.961805	-436.644510	401.216700	912.536064	-419.524306	402.029295	897.590141	-292.609955	341.031010	750.389542	-441.550645	335.262701	666.708060	-423.152571	285.516108	591.314130	-420.572822	363.672968	659.496694	-398.050432	240.152904	469.817404	-402.916375	182.089620	406.057578	-355.876241	485.900786	469.497647	-356.193630	394.919554	445.655678	-311.226008	374.974426	420.103453	-428.135479	-214.636613	945.098526	-230.095083	-5.953917	83.873509	-435.082731	-11.110713	80.525754	-34.480849	
502	2.5100	481.400788	1406.066998	-87.763715	433.619036	1429.655547	-386.237958	381.015106	1500.900377	-221.924337	406.958816	1330.497260	-236.103848	532.653236	1141.311919	8.398445	745.965800	940.129742	-31.552645	526.614385	1175.592813	-442.218863	742.546734	954.957844	-412.272549	-123.476539	1197.289124	-203.318133	37.894261	1257.555255	-392.848053	44.571284	1224.855622	-20.675035	67.889402	1183.610373	-349.631854	75.891685	1160.970068	-64.718412	-97.110430	1245.013908	-153.895076	-102.080315	1253.989354	-232.919468	-10.240933	1105.718574	-16.260554	10.011473	1155.349350	-411.071607	93.255102	982.478969	-0.178363	173.425200	944.348881	5.093249	225.001604	875.370350	0.192631	197.277511	971.334692	-2.624936	300.396105	771.487729	-25.019220	310.202945	761.647536	-147.675020	212.316259	627.572528	-13.021663	184.809401	545.688166	-37.226040	119.181150	487.825249	-45.871222	214.175553	535.188592	-59.142803	39.727145	387.828952	-79.948045	-29.129797	380.252199	-123.035288	224.159762	198.029753	-104.686649	112.996458	253.605545	-44.594372	151.248263	250.392615	-155.432670	136.550224	1062.600061	-435.627036	219.457998	1038.727467	-438.666720	238.310982	1068.466273	-428.595783	280.820056	973.196313	-436.075350	399.789828	908.764378	-418.380496	400.168763	893.863870	-291.660694	340.966429	745.991735	-441.080919	335.979822	662.317845	-423.003426	287.044978	586.298780	-420.529430	364.499603	655.198466	-397.685685	242.738438	464.341739	-403.527855	184.796947	400.324367	-356.828499	488.636462	465.146617	-355.542071	397.353035	440.723332	-311.160203	378.014319	415.182754	-428.195376	-214.617018	945.134011	-230.152910	-5.950562	83.884667	-435.067447	-11.113215	80.536022	-34.469556	
503	2.5150	481.710395	1406.116587	-88.229573	433.855795	1429.894956	-386.359440	381.436294	1501.068577	-222.254938	407.190047	1330.638679	-236.416996	533.204957	1142.035467	8.984626	745.846500	940.200934	-31.355167	526.863295	1175.816015	-442.137561	742.596600	954.968167	-412.079007	-123.712690	1198.369967	-204.624705	38.921032	1257.950795	-393.963699	43.871709	1225.949076	-21.569927	68.398307	1183.788137	-350.364264	75.185268	1162.070832	-65.245762	-94.436386	1245.450953	-156.118929	-96.384916	1253.339158	-237.398892	-11.190371	1107.486350	-17.002320	10.607051	1155.191357	-411.762002	93.218099	984.999262	-0.752565	173.645200	947.375156	4.625057	225.633905	878.760075	0.173587	197.232618	974.563963	-3.218119	301.573998	774.809609	-24.247052	310.961982	764.716181	-147.112307	212.615331	631.177866	-12.583620	184.358192	549.584729	-36.974264	118.155346	492.299060	-45.592645	213.603376	538.971867	-58.945518	37.742822	393.233431	-79.752864	-31.265121	385.827584	-123.005250	221.342484	202.475005	-104.776355	110.396501	258.564792	-44.547855	148.741263	255.245081	-155.210705	136.428805	1061.264560	-435.843275	219.099200	1036.416135	-438.428097	238.241758	1066.076797	-428.503015	279.755309	970.357863	-435.545523	398.321425	904.926485	-417.357877	398.257270	890.284313	-290.775476	340.981000	741.618959	-441.068517	336.622471	657.681462	-422.762204	288.471651	581.204819	-420.592799	365.207123	651.003028	-397.937573	245.277560	458.792218	-404.222676	187.482383	394.461794	-357.819584	491.066960	460.280056	-355.077477	399.654785	435.690422	-311.229486	380.911031	410.170832	-428.342363	-214.700207	945.160510	-230.039926	-5.950730	83.892540	-435.075369	-11.111494	80.536827	-34.475084	
504	2.5200	482.065542	1406.203292	-88.677286	434.199870	1430.128851	-386.486219	381.947071	1501.239887	-222.621414	407.512583	1330.779357	-236.714346	532.966935	1142.018717	8.693616	745.759161	940.289018	-31.149713	527.229643	1176.077279	-442.129688	742.725213	954.967568	-411.917113	-123.718972	1199.485071	-205.957107	39.895525	1258.340501	-395.033714	43.272171	1227.089152	-22.418821	69.008991	1183.987800	-351.244339	72.675403	1162.930455	-67.261458	-95.062808	1246.834884	-157.583569	-94.653877	1254.244416	-238.165854	-12.024396	1109.309584	-17.707543	11.207960	1154.999955	-412.507179	93.339440	987.477807	-1.286780	173.991472	950.512855	4.130170	226.406875	882.123503	0.285646	197.487090	977.678941	-3.960120	302.796315	778.199976	-23.404152	311.940956	767.653994	-146.407587	213.019134	634.872433	-12.009216	184.027051	553.686475	-36.590653	117.316101	496.894672	-45.295857	213.103656	542.807827	-58.672354	35.804360	398.682555	-79.595549	-33.233023	391.422943	-122.865692	218.707554	207.178173	-104.759141	107.980803	263.531460	-44.566630	146.208276	260.102586	-155.225656	136.182915	1059.826918	-436.058321	218.657684	1034.019515	-438.307023	238.124061	1063.490560	-428.489044	278.637650	967.388763	-435.084431	396.704401	901.075198	-417.130474	396.291729	886.768705	-289.884395	340.847298	737.270379	-441.697443	337.179128	652.976905	-422.600971	289.830077	575.954222	-420.795556	365.863302	646.535955	-397.870626	247.817204	453.157220	-404.921563	189.946460	388.525848	-358.991072	493.328301	455.386778	-354.633570	401.847775	430.567012	-311.276063	383.384234	405.594054	-429.391382	-214.651702	945.211514	-230.116273	-5.942741	83.911104	-435.076558	-11.425264	80.970408	-34.412157	
